<?xml version="1.0" encoding="utf-8"?>
<!-- Generator: Adobe Illustrator 25.4.1, SVG Export Plug-In . SVG Version: 6.00 Build 0)  -->
<svg version="1.1" id="Capa_1" xmlns="http://www.w3.org/2000/svg" xmlns:xlink="http://www.w3.org/1999/xlink" x="0px" y="0px"
	 viewBox="0 0 390.4 307.1" style="enable-background:new 0 0 390.4 307.1;" xml:space="preserve">
<style type="text/css">
	.st0{opacity:0.76;fill:#FE7A30;}
</style>
<path class="st0" d="M190.1,51C133.7,51,88,96.7,88,153.1s45.7,102.1,102.1,102.1s102.1-45.7,102.1-102.1
	C292.1,96.8,246.4,51.1,190.1,51z M190.1,245c-50.7,0-91.9-41.1-91.9-91.9s41.1-91.9,91.9-91.9s91.9,41.1,91.9,91.9
	C281.9,203.8,240.8,244.9,190.1,245z"/>
<path class="st0" d="M185,275.6h10.2v30.6H185V275.6z"/>
<path class="st0" d="M185,0h10.2v30.6H185V0z"/>
<path class="st0" d="M246.9,261.7l8.8-5.1l15.3,26.5l-8.8,5.1L246.9,261.7z"/>
<path class="st0" d="M109.1,23.1L118,18l15.3,26.5l-8.8,5.1L109.1,23.1z"/>
<path class="st0" d="M293.6,218.8l5.1-8.8l26.5,15.3l-5.1,8.8L293.6,218.8z"/>
<path class="st0" d="M54.9,81l5.1-8.8l26.5,15.3l-5.1,8.8L54.9,81z"/>
<path class="st0" d="M312.6,148h30.6v10.2h-30.6V148z"/>
<path class="st0" d="M37,148h30.6v10.2H37V148z"/>
<path class="st0" d="M293.6,87.4l26.5-15.3l5.1,8.8l-26.5,15.3L293.6,87.4z"/>
<path class="st0" d="M54.9,225.2l26.5-15.3l5.1,8.8L60,234.1L54.9,225.2z"/>
<path class="st0" d="M246.9,44.5L262.2,18l8.8,5.1l-15.3,26.5L246.9,44.5z"/>
<path class="st0" d="M109.1,283.1l15.3-26.5l8.8,5.1L118,288.2L109.1,283.1z"/>
<circle class="st0" cx="190.1" cy="153.1" r="81"/>
</svg>
