<?xml version="1.0" encoding="utf-8"?>
<!-- Generator: Adobe Illustrator 25.4.1, SVG Export Plug-In . SVG Version: 6.00 Build 0)  -->
<svg version="1.1" id="Capa_1" xmlns="http://www.w3.org/2000/svg" xmlns:xlink="http://www.w3.org/1999/xlink" x="0px" y="0px"
	 viewBox="0 0 390.4 307.1" style="enable-background:new 0 0 390.4 307.1;" xml:space="preserve">
<style type="text/css">
	.st0{opacity:0.76;fill:#A1F2F1;}
	.st1{opacity:0.86;fill:#00A6A3;}
	.st2{opacity:0.76;fill:#FE7A30;}
	.st3{opacity:0.76;}
	.st4{fill:#FE7A30;}
</style>
<path class="st0" d="M123.8,277.4c0.7-8.8,7.9-15.7,16.8-16l13.2-0.5l2.8-12.9c2.8-13,14.3-22.3,27.6-22.3c4,0,5.1,0.6,22.6,3.4
	l1.7-18.1c2.4-24.2,23.9-41.9,48-39.5c19.1,1.9,34.8,15.9,38.8,34.8l3.5,17.1c14.9-3.3,18.9-5.2,27.1-5.2c24.3,0,44,19.7,44,44
	c0,5.2-0.9,10.4-2.8,15.3H123.8z"/>
<path class="st1" d="M325.9,196.6c-3.6,0-7.2,0.3-10.7,0.9c-3.6-12.6-10.6-23.4-19.8-31.4c-3.7-3.2-7.7-6-11.9-8.3
	c-14.5-7.9-31.9-10.3-49-5.5c-24.3,6.9-42.5,27.1-46.7,52c-1.2-0.1-2.4-0.1-3.6-0.1c-22.2,0-41.7,14.7-47.8,36
	c-9.5,1.2-17.8,5.7-23.8,12.3c-2.3,2.5-4.2,5.2-5.8,8.2c-2.9,5.4-4.5,11.6-4.4,18.2c0,11.4,4.8,18.4,5.4,19.9h272.4
	c0.6-1.3,11.3-15.1,11.3-36.8C391.3,225.9,362.1,196.7,325.9,196.6z M375,289.8H113.3c-6-15.5,1.7-32.9,17.1-38.9
	c3.1-1.2,6.3-1.9,9.6-2l3.5-0.1l0.7-3.4c4.1-18.7,20.6-32.1,39.8-32.1c5,0,8.1,0.9,11.6,1.4l0.5-4.8c3-31,30.7-53.7,61.7-50.6
	c24.5,2.4,44.6,20.4,49.7,44.5l0.9,4.6c3-0.6,8.7-2.6,17.5-2.6c31.2,0,56.4,25.3,56.4,56.4C382.3,271.8,379.8,281.3,375,289.8z"/>
<rect x="80" y="30.1" transform="matrix(-0.371 -0.9286 0.9286 -0.371 126.1373 157.6365)" class="st2" width="73" height="12"/>
<rect x="-0.9" y="121.7" transform="matrix(-0.9363 -0.3511 0.3511 -0.9363 24.112 259.6774)" class="st2" width="73" height="12"/>
<rect x="-0.9" y="228.6" transform="matrix(-0.9539 0.3002 -0.3002 -0.9539 139.9798 447.6374)" class="st2" width="73" height="12"/>
<rect x="214.8" y="35.7" transform="matrix(0.3511 -0.9363 0.9363 0.3511 120.2483 256.933)" class="st2" width="61.4" height="12"/>
<rect x="299.2" y="118.1" transform="matrix(0.9539 -0.3002 0.3002 0.9539 -22.0303 104.7704)" class="st2" width="61.4" height="12"/>
<g class="st3">
	<path class="st4" d="M295.4,166.1c-3.7-3.2-7.7-6-11.9-8.3c-11.7-41.7-50.3-70.9-95.9-70.9c-55.1,0-99.9,44.8-99.9,99.9
		c0,24.5,8.7,47.6,24.7,65.8c-2.3,2.5-4.2,5.2-5.8,8.2c-18.6-20.3-28.7-46.4-28.7-74c0-60.5,49.2-109.7,109.7-109.7
		C241.6,77.1,286.5,114.3,295.4,166.1z"/>
</g>
</svg>
