<?xml version="1.0" encoding="utf-8"?>
<!-- Generator: Adobe Illustrator 25.4.1, SVG Export Plug-In . SVG Version: 6.00 Build 0)  -->
<svg version="1.1" id="Capa_1" xmlns="http://www.w3.org/2000/svg" xmlns:xlink="http://www.w3.org/1999/xlink" x="0px" y="0px"
	 viewBox="0 0 390.4 307.1" style="enable-background:new 0 0 390.4 307.1;" xml:space="preserve">
<style type="text/css">
	.st0{opacity:0.76;fill:#A1F2F1;enable-background:new    ;}
	.st1{opacity:0.86;fill:#00A6A3;enable-background:new    ;}
	.st2{opacity:0.76;fill:#FE7A30;enable-background:new    ;}
	.st3{opacity:0.76;}
	.st4{fill:#FE7A30;}
</style>
<path class="st0" d="M174,700.4c0.7-8.8,7.9-15.7,16.8-16l13.2-0.5l2.8-12.9c2.8-13,14.3-22.3,27.6-22.3c4,0,5.1,0.6,22.6,3.4
	l1.7-18.1c2.4-24.2,23.9-41.9,48-39.5c19.1,1.9,34.8,15.9,38.8,34.8l3.5,17.1c14.9-3.3,18.9-5.2,27.1-5.2c24.3,0,44,19.7,44,44
	c0,5.2-0.9,10.4-2.8,15.3L174,700.4L174,700.4z"/>
<path class="st1" d="M376.1,619.6c-3.6,0-7.2,0.3-10.7,0.9c-3.6-12.6-10.6-23.4-19.8-31.4c-3.7-3.2-7.7-6-11.9-8.3
	c-14.5-7.9-31.9-10.3-49-5.5c-24.3,6.9-42.5,27.1-46.7,52c-1.2-0.1-2.4-0.1-3.6-0.1c-22.2,0-41.7,14.7-47.8,36
	c-9.5,1.2-17.8,5.7-23.8,12.3c-2.3,2.5-4.2,5.2-5.8,8.2c-2.9,5.4-4.5,11.6-4.4,18.2c0,11.4,4.8,18.4,5.4,19.9h272.4
	c0.6-1.3,11.3-15.1,11.3-36.8C441.5,648.9,412.3,619.7,376.1,619.6z M425.2,712.8H163.5c-6-15.5,1.7-32.9,17.1-38.9
	c3.1-1.2,6.3-1.9,9.6-2l3.5-0.1l0.7-3.4c4.1-18.7,20.6-32.1,39.8-32.1c5,0,8.1,0.9,11.6,1.4l0.5-4.8c3-31,30.7-53.7,61.7-50.6
	c24.5,2.4,44.6,20.4,49.7,44.5l0.9,4.6c3-0.6,8.7-2.6,17.5-2.6c31.2,0,56.4,25.3,56.4,56.4C432.5,694.8,430,704.3,425.2,712.8z"/>
<path class="st0" d="M54.7,154.9c0.8-10.3,9.2-18.4,19.7-18.7l15.4-0.6l3.3-15.1c3.3-15.2,16.7-26.1,32.3-26.1c4.7,0,6,0.7,26.4,4
	l2-21.2c2.8-28.3,28-49,56.2-46.2c22.4,2.2,40.7,18.6,45.4,40.7l4.1,20c17.4-3.9,22.1-6.1,31.7-6.1c28.4,0,51.5,23.1,51.5,51.5
	c0,6.1-1.1,12.2-3.3,17.9H54.7V154.9z"/>
<path class="st1" d="M291.2,60.3c-4.2,0-8.4,0.4-12.5,1.1c-4.2-14.7-12.4-27.4-23.2-36.7c-4.3-3.7-9-7-13.9-9.7
	c-17-9.2-37.3-12.1-57.3-6.4c-28.4,8.1-49.7,31.7-54.6,60.9c-1.4-0.1-2.8-0.1-4.2-0.1c-26,0-48.8,17.2-55.9,42.1
	c-11.1,1.4-20.8,6.7-27.9,14.4c-2.7,2.9-4.9,6.1-6.8,9.6c-3.4,6.3-5.3,13.6-5.1,21.3c0,13.3,5.6,21.5,6.3,23.3h318.8
	c0.7-1.5,13.2-17.7,13.2-43.1C367.7,94.6,333.6,60.4,291.2,60.3z M348.7,169.4H42.4c-7-18.1,2-38.5,20-45.5
	c3.6-1.4,7.4-2.2,11.2-2.3l4.1-0.1l0.8-4c4.8-21.9,24.1-37.6,46.6-37.6c5.9,0,9.5,1.1,13.6,1.6l0.6-5.6
	c3.5-36.3,35.9-62.8,72.2-59.2c28.7,2.8,52.2,23.9,58.2,52.1l1.1,5.4c3.5-0.7,10.2-3,20.5-3c36.5,0,66,29.6,66,66
	C357.2,148.3,354.3,159.4,348.7,169.4z"/>
<rect x="160.7" y="422.6" transform="matrix(0.9286 -0.371 0.371 0.9286 -158.4265 94.6082)" class="st2" width="12" height="73"/>
<rect x="79.9" y="514.1" transform="matrix(0.3511 -0.9363 0.9363 0.3511 -459.8564 437.6945)" class="st2" width="12" height="73"/>
<rect x="49.3" y="651.6" transform="matrix(0.9539 -0.3002 0.3002 0.9539 -193.4348 56.0971)" class="st2" width="73" height="12"/>
<rect x="265" y="458.7" transform="matrix(0.3511 -0.9363 0.9363 0.3511 -243.2417 578.4648)" class="st2" width="61.4" height="12"/>
<rect x="349.5" y="541.1" transform="matrix(0.9539 -0.3002 0.3002 0.9539 -146.711 139.3576)" class="st2" width="61.4" height="12"/>
<g class="st3">
	<path class="st4" d="M345.6,589.1c-3.7-3.2-7.7-6-11.9-8.3c-11.7-41.7-50.3-70.9-95.9-70.9c-55.1,0-99.9,44.8-99.9,99.9
		c0,24.5,8.7,47.6,24.7,65.8c-2.3,2.5-4.2,5.2-5.8,8.2c-18.6-20.3-28.7-46.4-28.7-74c0-60.5,49.2-109.7,109.7-109.7
		C291.8,500.1,336.7,537.3,345.6,589.1z"/>
</g>
<path class="st1" d="M25.9,195.8h38.9v13H25.9V195.8z"/>
<path class="st1" d="M90.8,195.8h272.4v13H90.8V195.8z"/>
<path class="st1" d="M25.9,247.7h38.9v13H25.9V247.7z"/>
<path class="st1" d="M0,221.7h38.9v13H0V221.7z"/>
<path class="st1" d="M0,273.6h38.9v13H0V273.6z"/>
<path class="st1" d="M350.2,221.7h38.9v13h-38.9V221.7z"/>
<path class="st1" d="M350.2,273.6h38.9v13h-38.9V273.6z"/>
<path class="st1" d="M90.8,247.7h272.4v13H90.8V247.7z"/>
<path class="st1" d="M64.8,221.7h259.5v13H64.8V221.7z"/>
<path class="st1" d="M64.8,273.6h259.5v13H64.8V273.6z"/>
</svg>
