<?xml version="1.0" encoding="utf-8"?>
<!-- Generator: Adobe Illustrator 25.4.1, SVG Export Plug-In . SVG Version: 6.00 Build 0)  -->
<svg version="1.1" id="Capa_1" xmlns="http://www.w3.org/2000/svg" xmlns:xlink="http://www.w3.org/1999/xlink" x="0px" y="0px"
	 viewBox="0 0 390.4 307.1" style="enable-background:new 0 0 390.4 307.1;" xml:space="preserve">
<style type="text/css">
	.st0{fill:#A1F2F1;enable-background:new    ;}
	.st1{opacity:0.86;fill:#00A6A3;enable-background:new    ;}
	.st2{opacity:0.18;}
	.st3{fill:#00A6A3;}
</style>
<path class="st0" d="M24.6,89.8c0.5-6.2,5.6-11,11.8-11.2l9.3-0.4l2-9.1c2-9.1,10.1-15.7,19.4-15.7c2.8,0,3.6,0.4,15.9,2.4l1.2-12.7
	c1.7-17,16.8-29.5,33.8-27.8c13.4,1.3,24.5,11.2,27.3,24.5l2.4,12c10.5-2.3,13.3-3.7,19.1-3.7c17.1,0,31,13.8,31,31
	c0,3.7-0.6,7.3-2,10.8H24.6V89.8z"/>
<path class="st1" d="M166.9,32.9c-2.5,0-5.1,0.2-7.5,0.6c-2.5-8.9-7.5-16.4-14-22.1c-2.6-2.2-5.4-4.2-8.4-5.8
	c-10.2-5.6-22.4-7.3-34.5-3.9C85.5,6.6,72.6,20.8,69.7,38.4c-0.8-0.1-1.7-0.1-2.5-0.1c-15.7,0-29.3,10.3-33.6,25.4
	c-6.7,0.8-12.5,4-16.8,8.6c-1.6,1.8-3,3.7-4.1,5.8c-2,3.8-3.2,8.2-3.1,12.8c0,8,3.4,12.9,3.8,14h191.8c0.4-0.9,8-10.6,8-25.9
	C212.9,53.6,192.4,33,166.9,32.9z M201.5,98.6H17.2c-4.2-10.9,1.2-23.2,12-27.4c2.2-0.8,4.5-1.3,6.7-1.4l2.4-0.1l0.5-2.4
	c2.9-13.2,14.5-22.6,28-22.6c3.5,0,5.7,0.6,8.2,1l0.4-3.4C77.6,20.5,97.1,4.5,119,6.7c17.2,1.7,31.4,14.4,35,31.3l0.6,3.2
	c2.1-0.4,6.1-1.8,12.3-1.8c22,0,39.7,17.8,39.7,39.7C206.6,85.9,204.9,92.6,201.5,98.6z"/>
<path class="st0" d="M191.7,256.9c0.5-6.2,5.6-11,11.8-11.2l9.3-0.4l2-9.1c2-9.1,10.1-15.7,19.4-15.7c2.8,0,3.6,0.4,15.9,2.4
	l1.2-12.7c1.7-17,16.8-29.5,33.8-27.8c13.4,1.3,24.5,11.2,27.3,24.5l2.4,12c10.5-2.3,13.3-3.7,19.1-3.7c17.1,0,31,13.8,31,31
	c0,3.7-0.6,7.3-2,10.8H191.7V256.9z"/>
<path class="st1" d="M334,200.1c-2.5,0-5.1,0.2-7.5,0.6c-2.5-8.9-7.5-16.4-14-22.1c-2.6-2.2-5.4-4.2-8.4-5.8
	c-10.2-5.6-22.4-7.3-34.5-3.9c-17.1,4.9-29.9,19.1-32.9,36.6c-0.8-0.1-1.7-0.1-2.5-0.1c-15.7,0-29.3,10.3-33.6,25.4
	c-6.7,0.8-12.5,4-16.8,8.6c-1.6,1.8-3,3.7-4.1,5.8c-2,3.8-3.2,8.2-3.1,12.8c0,8,3.4,12.9,3.8,14h191.8c0.4-0.9,8-10.6,8-25.9
	C380.1,220.7,359.5,200.1,334,200.1z M368.6,265.7H184.4c-4.2-10.9,1.2-23.2,12-27.4c2.2-0.8,4.5-1.3,6.7-1.4l2.4-0.1l0.5-2.4
	c2.9-13.2,14.5-22.6,28-22.6c3.5,0,5.7,0.6,8.2,1l0.4-3.4c2.1-21.8,21.6-37.8,43.5-35.6c17.2,1.7,31.4,14.4,35,31.3l0.6,3.2
	c2.1-0.4,6.1-1.8,12.3-1.8c22,0,39.7,17.8,39.7,39.7C373.7,253,372,259.7,368.6,265.7z"/>
<g class="st2">
	
		<image style="overflow:visible;" width="356" height="356" xlink:href="F5565B9E57D8D5FC.png"  transform="matrix(1 0 0 1 14 -14.9)">
	</image>
</g>
<g>
	<path class="st3" d="M195.3,307.1C117.4,307.1,54,243.7,54,165.8c0-77.9,63.4-141.3,141.3-141.3s141.3,63.4,141.3,141.3
		C336.6,243.7,273.2,307.1,195.3,307.1z M195.3,39.3C125.5,39.3,68.8,96,68.8,165.8c0,69.7,56.7,126.5,126.5,126.5
		s126.5-56.7,126.5-126.5C321.8,96,265,39.3,195.3,39.3z"/>
</g>
<g>
	
		<rect x="181.8" y="25.3" transform="matrix(0.7502 -0.6612 0.6612 0.7502 -58.2403 166.9425)" class="st3" width="20.1" height="270.5"/>
</g>
<g>
	
		<rect x="66.2" y="155.7" transform="matrix(0.694 -0.7199 0.7199 0.694 -57.7255 195.7281)" class="st3" width="270.5" height="20.1"/>
</g>
</svg>
