<?xml version="1.0" encoding="utf-8"?>
<!-- Generator: Adobe Illustrator 25.4.1, SVG Export Plug-In . SVG Version: 6.00 Build 0)  -->
<svg version="1.1" id="Capa_1" xmlns="http://www.w3.org/2000/svg" xmlns:xlink="http://www.w3.org/1999/xlink" x="0px" y="0px"
	 viewBox="0 0 390.4 307.1" style="enable-background:new 0 0 390.4 307.1;" xml:space="preserve">
<style type="text/css">
	.st0{opacity:0.76;fill:#A1F2F1;enable-background:new    ;}
	.st1{opacity:0.86;fill:#00A6A3;enable-background:new    ;}
	.st2{opacity:0.76;fill:#FE7A30;enable-background:new    ;}
	.st3{opacity:0.76;}
	.st4{fill:#FE7A30;}
</style>
<path class="st0" d="M174,700.4c0.7-8.8,7.9-15.7,16.8-16l13.2-0.5l2.8-12.9c2.8-13,14.3-22.3,27.6-22.3c4,0,5.1,0.6,22.6,3.4
	l1.7-18.1c2.4-24.2,23.9-41.9,48-39.5c19.1,1.9,34.8,15.9,38.8,34.8l3.5,17.1c14.9-3.3,18.9-5.2,27.1-5.2c24.3,0,44,19.7,44,44
	c0,5.2-0.9,10.4-2.8,15.3L174,700.4L174,700.4z"/>
<path class="st1" d="M376.1,619.6c-3.6,0-7.2,0.3-10.7,0.9c-3.6-12.6-10.6-23.4-19.8-31.4c-3.7-3.2-7.7-6-11.9-8.3
	c-14.5-7.9-31.9-10.3-49-5.5c-24.3,6.9-42.5,27.1-46.7,52c-1.2-0.1-2.4-0.1-3.6-0.1c-22.2,0-41.7,14.7-47.8,36
	c-9.5,1.2-17.8,5.7-23.8,12.3c-2.3,2.5-4.2,5.2-5.8,8.2c-2.9,5.4-4.5,11.6-4.4,18.2c0,11.4,4.8,18.4,5.4,19.9h272.4
	c0.6-1.3,11.3-15.1,11.3-36.8C441.5,648.9,412.3,619.7,376.1,619.6z M425.2,712.8H163.5c-6-15.5,1.7-32.9,17.1-38.9
	c3.1-1.2,6.3-1.9,9.6-2l3.5-0.1l0.7-3.4c4.1-18.7,20.6-32.1,39.8-32.1c5,0,8.1,0.9,11.6,1.4l0.5-4.8c3-31,30.7-53.7,61.7-50.6
	c24.5,2.4,44.6,20.4,49.7,44.5l0.9,4.6c3-0.6,8.7-2.6,17.5-2.6c31.2,0,56.4,25.3,56.4,56.4C432.5,694.8,430,704.3,425.2,712.8z"/>
<path class="st0" d="M31.8,171.4c0.9-11.7,10.5-20.8,22.3-21.2l17.5-0.7l3.7-17.1c3.7-17.2,19-29.6,36.6-29.6c5.3,0,6.8,0.8,30,4.5
	l2.3-24c3.2-32.1,31.7-55.6,63.7-52.4c25.3,2.5,46.2,21.1,51.5,46.2l4.6,22.7c19.8-4.4,25.1-6.9,36-6.9c32.2,0,58.4,26.1,58.4,58.4
	c0,6.9-1.2,13.8-3.7,20.3H31.8V171.4z"/>
<path class="st1" d="M300,64.2c-4.8,0-9.6,0.4-14.2,1.2c-4.8-16.7-14.1-31-26.3-41.7c-4.9-4.2-10.2-8-15.8-11
	c-19.2-10.5-42.3-13.7-65-7.3c-32.2,9.2-56.4,36-62,69c-1.6-0.1-3.2-0.1-4.8-0.1c-29.5,0-55.3,19.5-63.4,47.8
	c-12.6,1.6-23.6,7.6-31.6,16.3c-3.1,3.3-5.6,6.9-7.7,10.9c-3.8,7.2-6,15.4-5.8,24.1c0,15.1,6.4,24.4,7.2,26.4H372
	c0.8-1.7,15-20,15-48.8C386.7,103.1,348,64.3,300,64.2z M365.1,187.9H17.9c-8-20.6,2.3-43.7,22.7-51.6c4.1-1.6,8.4-2.5,12.7-2.7
	l4.6-0.1l0.9-4.5c5.4-24.8,27.3-42.6,52.8-42.6c6.6,0,10.7,1.2,15.4,1.9l0.7-6.4c4-41.1,40.7-71.3,81.9-67.1
	c32.5,3.2,59.2,27.1,65.9,59l1.2,6.1c4-0.8,11.5-3.4,23.2-3.4c41.4,0,74.8,33.6,74.8,74.8C374.8,164,371.5,176.6,365.1,187.9z"/>
<rect x="160.7" y="422.6" transform="matrix(0.9286 -0.371 0.371 0.9286 -158.4265 94.6082)" class="st2" width="12" height="73"/>
<rect x="79.9" y="514.1" transform="matrix(0.3511 -0.9363 0.9363 0.3511 -459.8564 437.6945)" class="st2" width="12" height="73"/>
<rect x="49.3" y="651.6" transform="matrix(0.9539 -0.3002 0.3002 0.9539 -193.4348 56.0971)" class="st2" width="73" height="12"/>
<rect x="265" y="458.7" transform="matrix(0.3511 -0.9363 0.9363 0.3511 -243.2417 578.4648)" class="st2" width="61.4" height="12"/>
<rect x="349.5" y="541.1" transform="matrix(0.9539 -0.3002 0.3002 0.9539 -146.711 139.3576)" class="st2" width="61.4" height="12"/>
<g class="st3">
	<path class="st4" d="M345.6,589.1c-3.7-3.2-7.7-6-11.9-8.3c-11.7-41.7-50.3-70.9-95.9-70.9c-55.1,0-99.9,44.8-99.9,99.9
		c0,24.5,8.7,47.6,24.7,65.8c-2.3,2.5-4.2,5.2-5.8,8.2c-18.6-20.3-28.7-46.4-28.7-74c0-60.5,49.2-109.7,109.7-109.7
		C291.8,500.1,336.7,537.3,345.6,589.1z"/>
</g>
<path class="st1" d="M93,217.8h44.1v14.7H93V217.8z"/>
<path class="st1" d="M180.4,217.8h44.1v14.7h-44.1V217.8z"/>
<path class="st1" d="M137.3,254h44.1v14.7h-44.1V254z"/>
<path class="st1" d="M180.4,290.2h44.1v14.7h-44.1V290.2z"/>
<path class="st1" d="M225.1,254h44.1v14.7h-44.1V254z"/>
<path class="st1" d="M269.1,217.8h44.1v14.7h-44.1V217.8z"/>
</svg>
