<?xml version="1.0" encoding="utf-8"?>
<!-- Generator: Adobe Illustrator 25.4.1, SVG Export Plug-In . SVG Version: 6.00 Build 0)  -->
<svg version="1.1" id="Capa_1" xmlns="http://www.w3.org/2000/svg" xmlns:xlink="http://www.w3.org/1999/xlink" x="0px" y="0px"
	 viewBox="0 0 390.4 307.1" style="enable-background:new 0 0 390.4 307.1;" xml:space="preserve">
<style type="text/css">
	.st0{opacity:0.76;fill:#A1F2F1;enable-background:new    ;}
	.st1{opacity:0.86;fill:#00A6A3;enable-background:new    ;}
	.st2{opacity:0.76;fill:#FE7A30;enable-background:new    ;}
	.st3{opacity:0.76;}
	.st4{fill:#FE7A30;}
</style>
<path class="st0" d="M174,700.4c0.7-8.8,7.9-15.7,16.8-16l13.2-0.5l2.8-12.9c2.8-13,14.3-22.3,27.6-22.3c4,0,5.1,0.6,22.6,3.4
	l1.7-18.1c2.4-24.2,23.9-41.9,48-39.5c19.1,1.9,34.8,15.9,38.8,34.8l3.5,17.1c14.9-3.3,18.9-5.2,27.1-5.2c24.3,0,44,19.7,44,44
	c0,5.2-0.9,10.4-2.8,15.3L174,700.4L174,700.4z"/>
<path class="st1" d="M376.1,619.6c-3.6,0-7.2,0.3-10.7,0.9c-3.6-12.6-10.6-23.4-19.8-31.4c-3.7-3.2-7.7-6-11.9-8.3
	c-14.5-7.9-31.9-10.3-49-5.5c-24.3,6.9-42.5,27.1-46.7,52c-1.2-0.1-2.4-0.1-3.6-0.1c-22.2,0-41.7,14.7-47.8,36
	c-9.5,1.2-17.8,5.7-23.8,12.3c-2.3,2.5-4.2,5.2-5.8,8.2c-2.9,5.4-4.5,11.6-4.4,18.2c0,11.4,4.8,18.4,5.4,19.9h272.4
	c0.6-1.3,11.3-15.1,11.3-36.8C441.5,648.9,412.3,619.7,376.1,619.6z M425.2,712.8H163.5c-6-15.5,1.7-32.9,17.1-38.9
	c3.1-1.2,6.3-1.9,9.6-2l3.5-0.1l0.7-3.4c4.1-18.7,20.6-32.1,39.8-32.1c5,0,8.1,0.9,11.6,1.4l0.5-4.8c3-31,30.7-53.7,61.7-50.6
	c24.5,2.4,44.6,20.4,49.7,44.5l0.9,4.6c3-0.6,8.7-2.6,17.5-2.6c31.2,0,56.4,25.3,56.4,56.4C432.5,694.8,430,704.3,425.2,712.8z"/>
<rect x="160.7" y="422.6" transform="matrix(0.9286 -0.371 0.371 0.9286 -158.4274 94.6121)" class="st2" width="12" height="73"/>
<rect x="79.8" y="514.1" transform="matrix(0.3511 -0.9363 0.9363 0.3511 -459.8343 437.6311)" class="st2" width="12" height="73"/>
<rect x="49.3" y="651.6" transform="matrix(0.9539 -0.3002 0.3002 0.9539 -193.4562 56.0937)" class="st2" width="73" height="12"/>
<rect x="265" y="458.8" transform="matrix(0.3511 -0.9363 0.9363 0.3511 -243.3063 578.4274)" class="st2" width="61.4" height="12"/>
<rect x="349.5" y="541.1" transform="matrix(0.9539 -0.3002 0.3002 0.9539 -146.7003 139.3669)" class="st2" width="61.4" height="12"/>
<g class="st3">
	<path class="st4" d="M345.6,589.1c-3.7-3.2-7.7-6-11.9-8.3c-11.7-41.7-50.3-70.9-95.9-70.9c-55.1,0-99.9,44.8-99.9,99.9
		c0,24.5,8.7,47.6,24.7,65.8c-2.3,2.5-4.2,5.2-5.8,8.2c-18.6-20.3-28.7-46.4-28.7-74c0-60.5,49.2-109.7,109.7-109.7
		C291.8,500.1,336.7,537.3,345.6,589.1z"/>
</g>
<path class="st1" d="M26.5,62.8h38.9v13H26.5V62.8z"/>
<path class="st1" d="M91.4,62.8h272.4v13H91.4V62.8z"/>
<path class="st1" d="M26.5,114.6h38.9v13H26.5V114.6z"/>
<path class="st1" d="M0.6,88.6h38.9v13H0.6V88.6z"/>
<path class="st1" d="M0.6,140.6h38.9v13H0.6V140.6z"/>
<path class="st1" d="M350.9,88.6h38.9v13h-38.9V88.6z"/>
<path class="st1" d="M350.9,140.6h38.9v13h-38.9V140.6z"/>
<path class="st1" d="M91.4,114.6h272.4v13H91.4V114.6z"/>
<path class="st1" d="M65.4,88.6h259.5v13H65.4V88.6z"/>
<path class="st1" d="M65.4,140.6h259.5v13H65.4V140.6z"/>
<path class="st1" d="M26.5,166.5h38.9v13H26.5V166.5z"/>
<path class="st1" d="M91.4,166.5h272.4v13H91.4V166.5z"/>
<path class="st1" d="M26.5,218.4h38.9v13H26.5V218.4z"/>
<path class="st1" d="M0.6,192.4h38.9v13H0.6V192.4z"/>
<path class="st1" d="M0.6,244.3h38.9v13H0.6V244.3z"/>
<path class="st1" d="M350.9,192.4h38.9v13h-38.9V192.4z"/>
<path class="st1" d="M350.9,244.3h38.9v13h-38.9V244.3z"/>
<path class="st1" d="M91.4,218.4h272.4v13H91.4V218.4z"/>
<path class="st1" d="M65.4,192.4h259.5v13H65.4V192.4z"/>
<path class="st1" d="M65.4,244.3h259.5v13H65.4V244.3z"/>
</svg>
