<?xml version="1.0" encoding="utf-8"?>
<!-- Generator: Adobe Illustrator 25.4.1, SVG Export Plug-In . SVG Version: 6.00 Build 0)  -->
<svg version="1.1" id="Capa_1" xmlns="http://www.w3.org/2000/svg" xmlns:xlink="http://www.w3.org/1999/xlink" x="0px" y="0px"
	 viewBox="0 0 390.4 307.1" style="enable-background:new 0 0 390.4 307.1;" xml:space="preserve">
<style type="text/css">
	.st0{opacity:0.76;fill:#A1F2F1;}
	.st1{opacity:0.86;fill:#00A6A3;}
	.st2{opacity:0.86;}
	.st3{fill:#00A6A3;}
</style>
<path class="st0" d="M56.3,144c0.8-10,9-17.7,18.9-18.1l14.8-0.6l3.1-14.5c3.2-14.7,16.2-25.1,31.2-25.2c4.5,0,5.7,0.6,25.6,3.9
	l2-20.5c2.7-27.3,26.9-47.3,54.2-44.6c21.6,2.1,39.3,18,43.8,39.2l4,19.3c16.8-3.7,21.4-5.9,30.6-5.9c27.4,0,49.7,22.3,49.6,49.7
	c0,5.9-1.1,11.7-3.1,17.2L56.3,144z"/>
<path class="st1" d="M284.5,52.8c-4.1,0-8.1,0.3-12.1,1c-4-14.3-12-26.4-22.4-35.5c-4.1-3.6-8.6-6.8-13.5-9.4
	c-16.3-8.9-36-11.6-55.4-6.2c-27.5,7.8-48,30.6-52.8,58.7c-1.4-0.1-2.7-0.1-4.1-0.1c-25,0-47,16.6-53.9,40.6
	c-10.7,1.4-20.1,6.5-26.9,13.9c-2.6,2.8-4.8,5.9-6.5,9.3c-3.2,6.1-5,13.1-5,20.5c0,12.9,5.4,20.8,6,22.5h307.6
	c0.6-1.4,12.7-17,12.7-41.5C358.3,85.9,325.3,52.9,284.5,52.8z M339.9,158H44.5c-6.8-17.4,1.9-37.1,19.3-43.9
	c3.5-1.4,7.2-2.1,10.9-2.3l4-0.2l0.8-3.9c4.6-21.1,23.3-36.2,44.9-36.3c5.6,0,9.2,1,13,1.5l0.5-5.5c3.4-35,34.6-60.6,69.6-57.1
	c27.7,2.7,50.4,23.1,56.1,50.3l1.1,5.1c3.4-0.7,9.8-2.9,19.8-2.9c35.2,0,63.7,28.5,63.7,63.7C348.2,137.7,345.3,148.5,339.9,158z"/>
<g class="st2">
	
		<rect x="86.9" y="211" transform="matrix(0.6129 -0.7902 0.7902 0.6129 -125.5112 178.1653)" class="st3" width="64.3" height="12.3"/>
</g>
<g class="st2">
	
		<rect x="73.9" y="240.1" transform="matrix(0.6409 -0.7676 0.7676 0.6409 -136.9961 199.6025)" class="st3" width="141.9" height="12.3"/>
</g>
<g class="st2">
	
		<rect x="156.3" y="227.1" transform="matrix(0.6508 -0.7593 0.7593 0.6508 -105.8125 236.4506)" class="st3" width="95.6" height="12.3"/>
</g>
<g class="st2">
	
		<rect x="223.3" y="218.8" transform="matrix(0.6936 -0.7204 0.7204 0.6936 -81.7009 257.8232)" class="st3" width="77.8" height="12.3"/>
</g>
</svg>
