<?xml version="1.0" encoding="utf-8"?>
<!-- Generator: Adobe Illustrator 25.4.1, SVG Export Plug-In . SVG Version: 6.00 Build 0)  -->
<svg version="1.1" id="Capa_1" xmlns="http://www.w3.org/2000/svg" xmlns:xlink="http://www.w3.org/1999/xlink" x="0px" y="0px"
	 viewBox="0 0 390.4 307.1" style="enable-background:new 0 0 390.4 307.1;" xml:space="preserve">
<style type="text/css">
	.st0{opacity:0.76;fill:#A1F2F1;}
	.st1{opacity:0.86;fill:#00A6A3;}
	.st2{opacity:0.86;}
	.st3{fill:#00A6A3;}
</style>
<path class="st0" d="M65.2,559.1c0.8-10,9-17.7,18.9-18.1l14.8-0.6l3.1-14.5c3.2-14.7,16.2-25.1,31.2-25.2c4.5,0,5.7,0.6,25.6,3.9
	l2-20.5c2.7-27.3,26.9-47.3,54.2-44.6c21.6,2.1,39.3,18,43.8,39.2l4,19.3c16.8-3.7,21.4-5.9,30.6-5.9c27.4,0,49.7,22.3,49.6,49.7
	c0,5.9-1.1,11.7-3.1,17.2L65.2,559.1z"/>
<path class="st1" d="M293.4,468c-4.1,0-8.1,0.3-12.1,1c-4-14.3-12-26.4-22.4-35.5c-4.1-3.6-8.6-6.8-13.5-9.4
	c-16.3-8.9-36-11.6-55.4-6.2c-27.5,7.8-48,30.6-52.8,58.7c-1.4-0.1-2.7-0.1-4.1-0.1c-25,0-47,16.6-53.9,40.6
	c-10.7,1.4-20.1,6.5-26.9,13.9c-2.6,2.8-4.8,5.9-6.5,9.3c-3.2,6.1-5,13.1-5,20.5c0,12.9,5.4,20.8,6,22.5h307.6
	c0.6-1.4,12.7-17,12.7-41.5C367.3,501,334.2,468,293.4,468z M348.9,573.1H53.4c-6.8-17.4,1.9-37.1,19.3-43.9
	c3.5-1.4,7.2-2.1,10.9-2.3l4-0.2l0.8-3.9c4.6-21.1,23.3-36.2,44.9-36.3c5.6,0,9.2,1,13,1.5l0.5-5.5c3.4-35,34.6-60.6,69.6-57.1
	c27.7,2.7,50.4,23.1,56.1,50.3l1.1,5.1c3.4-0.7,9.8-2.9,19.8-2.9c35.2,0,63.7,28.5,63.7,63.7C357.1,552.8,354.3,563.6,348.9,573.1z"
	/>
<g class="st2">
	
		<rect x="95.9" y="626.1" transform="matrix(0.6129 -0.7902 0.7902 0.6129 -450.0756 345.947)" class="st3" width="64.3" height="12.3"/>
</g>
<g class="st2">
	
		<rect x="82.8" y="655.2" transform="matrix(0.6409 -0.7676 0.7676 0.6409 -452.4508 355.5518)" class="st3" width="141.9" height="12.3"/>
</g>
<g class="st2">
	
		<rect x="165.3" y="642.2" transform="matrix(0.6508 -0.7593 0.7593 0.6508 -417.8795 388.2154)" class="st3" width="95.6" height="12.3"/>
</g>
<g class="st2">
	
		<rect x="232.3" y="633.9" transform="matrix(0.6936 -0.7204 0.7204 0.6936 -377.9984 391.4622)" class="st3" width="77.8" height="12.3"/>
</g>
<path class="st0" d="M64.5,135.5c0.8-9.4,8.4-16.7,17.8-17l14-0.6l2.9-13.7c3-13.8,15.2-23.7,29.3-23.7c4.2,0,5.4,0.6,24.1,3.6
	l1.8-19.3c2.5-25.7,25.4-44.5,51-42c20.3,2,37,16.9,41.2,36.9l3.8,18.1c15.8-3.5,20.1-5.5,28.8-5.5c25.8,0,46.7,21,46.7,46.8
	c0,5.5-1,11-2.9,16.2L64.5,135.5z"/>
<g class="st2">
	<path class="st3" d="M279.3,49.7c-3.8,0-7.6,0.3-11.4,0.9c-10.4-37-48.9-58.5-85.8-48c-25.8,7.3-45.2,28.8-49.7,55.3
		c-1.3-0.1-2.6-0.1-3.8-0.1C105,57.8,84.3,73.4,77.8,96c-20.7,2.6-36.2,20.3-36.2,41.1c0,12.1,5.1,19.6,5.7,21.2h289.5
		c0.6-1.3,12-16,12-39.1C348.7,80.9,317.6,49.8,279.3,49.7z M331.4,148.7H53.4c-6.4-16.4,1.8-34.9,18.2-41.3c3.3-1.3,6.7-2,10.2-2.1
		l3.7-0.1l0.8-3.6c4.3-19.9,21.9-34.1,42.3-34.1c5.3,0,8.7,0.9,12.3,1.5l0.5-5.1c3.2-32.9,32.6-57,65.5-53.8
		c26,2.6,47.4,21.7,52.8,47.3l1,4.8c3.2-0.6,9.2-2.8,18.6-2.8c33.1,0,59.9,26.8,59.9,60C339.2,129.6,336.5,139.7,331.4,148.7z"/>
	<polygon class="st3" points="129,263.1 113.2,272.2 113.2,253.9 103.6,253.9 103.6,272.2 87.8,263.1 83,271.4 98.8,280.5 83,289.7 
		87.8,298 103.6,288.8 103.6,307.1 113.2,307.1 113.2,288.8 129,298 133.8,289.7 118,280.5 133.8,271.4 	"/>
	<polygon class="st3" points="215.8,185 200,194.2 200,175.9 190.4,175.9 190.4,194.2 174.6,185 169.8,193.3 185.6,202.5 
		169.8,211.6 174.6,219.9 190.4,210.8 190.4,229.1 200,229.1 200,210.8 215.8,219.9 220.6,211.6 204.8,202.5 220.6,193.3 	"/>
	<polygon class="st3" points="289.2,245.9 273.4,255 273.4,236.7 263.8,236.7 263.8,255 248,245.9 243.2,254.2 259,263.3 
		243.2,272.5 248,280.8 263.8,271.6 263.8,289.9 273.4,289.9 273.4,271.6 289.2,280.8 294,272.5 278.2,263.3 294,254.2 	"/>
</g>
</svg>
