<?xml version="1.0" encoding="utf-8"?>
<!-- Generator: Adobe Illustrator 25.4.1, SVG Export Plug-In . SVG Version: 6.00 Build 0)  -->
<svg version="1.1" id="Capa_1" xmlns="http://www.w3.org/2000/svg" xmlns:xlink="http://www.w3.org/1999/xlink" x="0px" y="0px"
	 viewBox="0 0 390.4 307.1" style="enable-background:new 0 0 390.4 307.1;" xml:space="preserve">
<style type="text/css">
	.st0{opacity:0.76;fill:#A1F2F1;enable-background:new    ;}
	.st1{opacity:0.86;fill:#00A6A3;enable-background:new    ;}
	.st2{opacity:0.76;fill:#FE7A30;enable-background:new    ;}
	.st3{opacity:0.76;}
	.st4{fill:#FE7A30;}
</style>
<path class="st0" d="M174,700.4c0.7-8.8,7.9-15.7,16.8-16l13.2-0.5l2.8-12.9c2.8-13,14.3-22.3,27.6-22.3c4,0,5.1,0.6,22.6,3.4
	l1.7-18.1c2.4-24.2,23.9-41.9,48-39.5c19.1,1.9,34.8,15.9,38.8,34.8l3.5,17.1c14.9-3.3,18.9-5.2,27.1-5.2c24.3,0,44,19.7,44,44
	c0,5.2-0.9,10.4-2.8,15.3L174,700.4L174,700.4z"/>
<path class="st1" d="M376.1,619.6c-3.6,0-7.2,0.3-10.7,0.9c-3.6-12.6-10.6-23.4-19.8-31.4c-3.7-3.2-7.7-6-11.9-8.3
	c-14.5-7.9-31.9-10.3-49-5.5c-24.3,6.9-42.5,27.1-46.7,52c-1.2-0.1-2.4-0.1-3.6-0.1c-22.2,0-41.7,14.7-47.8,36
	c-9.5,1.2-17.8,5.7-23.8,12.3c-2.3,2.5-4.2,5.2-5.8,8.2c-2.9,5.4-4.5,11.6-4.4,18.2c0,11.4,4.8,18.4,5.4,19.9h272.4
	c0.6-1.3,11.3-15.1,11.3-36.8C441.5,648.9,412.3,619.7,376.1,619.6z M425.2,712.8H163.5c-6-15.5,1.7-32.9,17.1-38.9
	c3.1-1.2,6.3-1.9,9.6-2l3.5-0.1l0.7-3.4c4.1-18.7,20.6-32.1,39.8-32.1c5,0,8.1,0.9,11.6,1.4l0.5-4.8c3-31,30.7-53.7,61.7-50.6
	c24.5,2.4,44.6,20.4,49.7,44.5l0.9,4.6c3-0.6,8.7-2.6,17.5-2.6c31.2,0,56.4,25.3,56.4,56.4C432.5,694.8,430,704.3,425.2,712.8z"/>
<rect x="160.7" y="422.6" transform="matrix(0.9286 -0.371 0.371 0.9286 -158.4265 94.6082)" class="st2" width="12" height="73"/>
<rect x="79.9" y="514.1" transform="matrix(0.3511 -0.9363 0.9363 0.3511 -459.8564 437.6945)" class="st2" width="12" height="73"/>
<rect x="49.3" y="651.6" transform="matrix(0.9539 -0.3002 0.3002 0.9539 -193.4348 56.0971)" class="st2" width="73" height="12"/>
<rect x="265" y="458.7" transform="matrix(0.3511 -0.9363 0.9363 0.3511 -243.2417 578.4648)" class="st2" width="61.4" height="12"/>
<rect x="349.5" y="541.1" transform="matrix(0.9539 -0.3002 0.3002 0.9539 -146.711 139.3576)" class="st2" width="61.4" height="12"/>
<g class="st3">
	<path class="st4" d="M345.6,589.1c-3.7-3.2-7.7-6-11.9-8.3c-11.7-41.7-50.3-70.9-95.9-70.9c-55.1,0-99.9,44.8-99.9,99.9
		c0,24.5,8.7,47.6,24.7,65.8c-2.3,2.5-4.2,5.2-5.8,8.2c-18.6-20.3-28.7-46.4-28.7-74c0-60.5,49.2-109.7,109.7-109.7
		C291.8,500.1,336.7,537.3,345.6,589.1z"/>
</g>
<path class="st0" d="M265.2,147.5l32.5-35.5H164.5l-20.2,35.5H43.7c0.8-10.2,9.2-18.1,19.4-18.5l15.2-0.6l3.2-14.9
	c3.7-17,20.1-28.2,37.3-25.3l20.7,3.5l2-20.9c2.7-27.9,27.6-48.4,55.5-45.6c22.1,2.2,40.3,18.4,44.8,40.2l4.1,19.7
	c17.2-3.8,21.9-6,31.3-6c28.1,0,50.8,22.8,50.8,50.9c0,6-1.1,12-3.2,17.7H265.2z"/>
<path class="st1" d="M264.8,55.1C253.5,15,211.8-8.5,171.6,2.8c-28.2,7.9-49.2,31.4-54.1,60.2c-27.1-2-51.9,15.3-59.4,41.4
	c-22.5,2.8-39.4,22-39.3,44.7c0,13.2,5.5,21.3,6.2,23h121.7l-37.3,65.7h36.6l-35.8,69.2l147.7-110.7h-57l22.2-24.2h116.7
	c0.7-1.4,13-17.4,13-42.5C352.8,83.4,311.1,47.5,264.8,55.1z M226.5,206.9l-86.2,64.6l22.7-43.9h-35.8l51.6-90.7h62.5l-64.3,70.1
	H226.5z M333.9,161.8H232.6l32.5-35.5h-92.3l-20.2,35.5h-121c-8.5-21.7,6.6-46.2,30.9-47.2l4.1-0.2l0.8-4
	c5.4-24.5,29-40.6,53.8-36.5l5.5,0.9c0.7-2.5-0.7-27.2,21.4-47.4c26.6-24.3,67.8-22.4,92.1,4.2c7.9,8.6,13.3,19.2,15.7,30.6l1.1,5.3
	l5.2-1.2c40.9-9.7,80.2,21.4,80.2,63.4C342.4,141,339.5,152,333.9,161.8L333.9,161.8z"/>
</svg>
